<svg width="20" height="20" viewBox="0 0 20 20" fill="none" xmlns="http://www.w3.org/2000/svg">
<path fill-rule="evenodd" clip-rule="evenodd" d="M7.93772 3.34224C10.4718 3.34224 12.5334 5.40383 12.5334 7.93793C12.5334 10.472 10.4718 12.5336 7.93772 12.5336C5.40361 12.5336 3.34203 10.472 3.34203 7.93793C3.34203 5.40383 5.40361 3.34224 7.93772 3.34224V3.34224ZM14.6024 12.2331C15.4271 10.967 15.876 9.46189 15.876 7.938C15.876 3.56103 12.315 0 7.938 0C3.56103 0 0 3.56103 0 7.938C0 12.315 3.56103 15.876 7.938 15.876C9.4857 15.876 10.9599 15.4375 12.2337 14.603L17.6307 20L20 17.6307L14.6024 12.2331Z" fill="white"/>
</svg>
