<svg width="14" height="12" viewBox="0 0 14 12" fill="none" xmlns="http://www.w3.org/2000/svg">
<path fill-rule="evenodd" clip-rule="evenodd" d="M8.29588 2.21343C7.71706 1.22117 6.28336 1.22117 5.70454 2.21343L2.18661 8.24416C1.60329 9.24415 2.32459 10.5 3.48228 10.5H10.5181C11.6758 10.5 12.3971 9.24415 11.8138 8.24417L8.29588 2.21343ZM4.84076 1.70956C5.80546 0.0557942 8.19496 0.0558008 9.15965 1.70956L12.6776 7.7403C13.6498 9.40694 12.4476 11.5 10.5181 11.5H3.48228C1.5528 11.5 0.350626 9.40693 1.32283 7.74029L4.84076 1.70956ZM6.46114 3.3635H7.53807V6.63622H6.46114V3.3635ZM7.53807 7.72726H6.46114V8.81817H7.53807V7.72726Z" fill="#FF7235"/>
</svg>
